<svg version="1.1" xmlns="http://www.w3.org/2000/svg" viewBox="0 0 554 584">
  <!-- svg-source:excalidraw -->
  
  <defs>
    <style>
      @font-face {
        font-family: "Virgil";
        src: url("https://excalidraw.com/FG_Virgil.woff2");
      }
      @font-face {
        font-family: "Cascadia";
        src: url("https://excalidraw.com/Cascadia.woff2");
      }
    </style>
  </defs>
  <g><g transform="translate(271 78.5) rotate(0 1 217.00000000000003)"><path d="M0 0 C0.3333333333333333 72.33333333333333, 1.6666666666666667 361.6666666666667, 2 434 M0 0 C0.3333333333333333 72.33333333333333, 1.6666666666666667 361.6666666666667, 2 434" stroke="#000000" stroke-width="1" fill="none"></path></g></g><g><g transform="translate(44.000000000000114 290.5) rotate(0 229.311224872619 -0.16417381241916473)"><path d="M0 0 C76.43707495753965 -0.05472460413972158, 382.1853747876982 -0.2736230206986079, 458.6224497452379 -0.32834762483832947 M0 0 C76.43707495753965 -0.05472460413972158, 382.1853747876982 -0.2736230206986079, 458.6224497452379 -0.32834762483832947" stroke="#000000" stroke-width="1" fill="none"></path></g></g><g><g transform="translate(114.64135258085116 437.7342571094632) rotate(0 156.67932370957442 -148.6171285547316)"><path d="M0 0 C52.226441236524806 -49.5390428515772, 261.13220618262403 -247.69521425788602, 313.35864741914884 -297.2342571094632 M0 0 C52.226441236524806 -49.5390428515772, 261.13220618262403 -247.69521425788602, 313.35864741914884 -297.2342571094632" stroke="#000000" stroke-width="1" fill="none"></path></g></g><g><g transform="translate(425.2880277597021 431.10529304817305) rotate(0 -156.15298995289038 -143.48618224197992)"><path d="M0 0 C-52.05099665096346 -47.828727413993306, -260.2549832548173 -239.14363706996653, -312.30597990578076 -286.97236448395984 M0 0 C-52.05099665096346 -47.828727413993306, -260.2549832548173 -239.14363706996653, -312.30597990578076 -286.97236448395984" stroke="#000000" stroke-width="1" fill="none"></path></g></g><g transform="translate(524 276.5) rotate(0 10 20.5)"><text x="0" y="33" font-family="Helvetica, Segoe UI Emoji" font-size="36px" fill="#000000" text-anchor="start" style="white-space: pre;" direction="ltr">1</text></g><g transform="translate(453 91) rotate(0 10 20.5)"><text x="0" y="33" font-family="Helvetica, Segoe UI Emoji" font-size="36px" fill="#000000" text-anchor="start" style="white-space: pre;" direction="ltr">2</text></g><g transform="translate(259 10) rotate(0 10 20.5)"><text x="0" y="33" font-family="Helvetica, Segoe UI Emoji" font-size="36px" fill="#000000" text-anchor="start" style="white-space: pre;" direction="ltr">3</text></g><g transform="translate(73 90) rotate(0 10 20.5)"><text x="0" y="33" font-family="Helvetica, Segoe UI Emoji" font-size="36px" fill="#000000" text-anchor="start" style="white-space: pre;" direction="ltr">4</text></g><g transform="translate(10 269) rotate(0 10 20.5)"><text x="0" y="33" font-family="Helvetica, Segoe UI Emoji" font-size="36px" fill="#000000" text-anchor="start" style="white-space: pre;" direction="ltr">5</text></g><g transform="translate(62 441) rotate(0 10 20.5)"><text x="0" y="33" font-family="Helvetica, Segoe UI Emoji" font-size="36px" fill="#000000" text-anchor="start" style="white-space: pre;" direction="ltr">6</text></g><g transform="translate(262 533) rotate(0 10 20.5)"><text x="0" y="33" font-family="Helvetica, Segoe UI Emoji" font-size="36px" fill="#000000" text-anchor="start" style="white-space: pre;" direction="ltr">7</text></g><g transform="translate(444 441) rotate(0 10 20.5)"><text x="0" y="33" font-family="Helvetica, Segoe UI Emoji" font-size="36px" fill="#000000" text-anchor="start" style="white-space: pre;" direction="ltr">8</text></g></svg>