<svg version="1.1" xmlns="http://www.w3.org/2000/svg" viewBox="0 0 749 689">
  <!-- svg-source:excalidraw -->
  
  <defs>
    <style>
      @font-face {
        font-family: "Virgil";
        src: url("https://excalidraw.com/FG_Virgil.woff2");
      }
      @font-face {
        font-family: "Cascadia";
        src: url("https://excalidraw.com/Cascadia.woff2");
      }
    </style>
  </defs>
  <rect x="0" y="0" width="749" height="689" fill="#ffffff"></rect><g transform="translate(10 69) rotate(0 81.5 71)"><path d="M-1.6778382882475853 1.0679880008101463 C54.438681497052315 -1.6635406044498087, 105.86383317932487 0.041191575191914964, 162.81108788400888 1.0232489928603172 M0.5167373828589916 -0.5697920136153698 C58.67460580952466 -0.34334884505718954, 118.59997225254774 0.6318893589451908, 163.1135275773704 0.08968724682927132 M161.70087937265635 -1.8518025055527687 C163.8187835329026 31.55605184659362, 162.78092528514563 65.66247645020485, 161.25014642626047 142.81814201921225 M162.32855920121074 0.8812016434967518 C163.62999334953724 47.29083435237408, 162.15588238857686 92.86784453317523, 163.01425854489207 142.27422048524022 M162.50169328600168 140.2366085872054 C98.81131159178912 142.66097863886506, 37.082393825799215 142.94690283510835, -1.0271265134215355 141.57607062906027 M162.64460388943553 142.67434694245458 C109.38277597390115 143.52393311034888, 56.917498809099186 143.33491807948798, 0.009910624474287033 142.39575399830937 M1.1857850924134254 141.03219588845968 C-1.8580376612395049 106.07773590162395, -0.5383672224730254 73.22370163500308, -0.5829867944121361 -1.3555530682206154 M-0.6036099977791309 141.1417972035706 C-1.0342203574627638 112.70850078314542, -0.8153915601223707 84.69868535026907, -0.018778879195451736 -0.4752776436507702" stroke="#000000" stroke-width="1" fill="none"></path></g><g transform="translate(149 360) rotate(0 133 127.5)"><path d="M20.858892313119473 57.88274825379593 C20.858892313119473 57.88274825379593, 20.858892313119473 57.88274825379593, 20.858892313119473 57.88274825379593 M20.858892313119473 57.88274825379593 C20.858892313119473 57.88274825379593, 20.858892313119473 57.88274825379593, 20.858892313119473 57.88274825379593 M12.39370509607668 81.89234067047946 C27.962233457340115 62.79821911838735, 40.75568363944775 46.60073637845671, 54.61664998935076 30.438523214591214 M9.763901256005717 82.63117660502903 C25.612560187300435 64.8752153471691, 40.30655110474765 47.143683012949346, 56.53289562494966 29.531599208993384 M3.571219200389457 101.07673037548139 C29.136094997068092 72.2775813216898, 51.88556059248049 46.902279185047426, 72.33405708965215 21.73409698894825 M5.4348840025532965 100.04039562617018 C30.546306312225624 70.83814571304006, 56.3011880390668 41.36241829884083, 74.25444870513233 20.957767832936906 M5.421857872381892 112.99644067761534 C22.20155024924104 92.84989461081132, 42.70395915283554 68.84164982532964, 95.00030815503668 9.156317366730605 M4.088161086067643 114.11886850249999 C38.31611954454108 73.70154541613441, 75.85115697611094 32.045448535306576, 96.37793641812276 8.650204794924889 M2.434804047485919 127.28153569884293 C27.3761784836598 97.18667547927441, 50.568935105224426 71.99118350416944, 109.78637430204068 6.113616352350405 M3.193750402918191 126.38105877004259 C36.89742550074732 88.23459675815336, 70.66860427769804 47.48736162007013, 108.77000859139477 7.124397763431958 M1.6844142770955415 140.9573037402347 C37.0376750652758 101.87373714621435, 72.2289054376244 59.918342514420274, 118.5998759879253 6.791910623759385 M0.9279372154364438 141.053060393931 C41.40332629811012 93.43237530271885, 81.05778215456456 47.930476668981754, 120.530058143147 4.614725330472346 M7.172631931500305 147.41129022041068 C42.060749710733845 106.26217828515473, 77.71274506989751 66.34774406995207, 134.24878088004652 1.8382751611369912 M5.890687354849447 148.66463070684776 C49.254627297564326 98.89411148747521, 90.36606773234796 50.09307059190239, 133.52891895167295 3.3831306402880017 M9.766251821566263 157.2822766631905 C52.926284779221284 106.19889959590643, 96.0896388827584 56.88487877399684, 143.98313070127733 2.4487470731450505 M8.561770549966107 157.53320005208278 C40.849553902907886 119.79709576398677, 74.14830958442433 82.626856340265, 143.39574753417742 2.4337199934143294 M10.774177316197601 164.68623990153972 C65.24172547204509 105.33444249043089, 118.68743471506203 44.15572715022051, 149.5348378845306 3.7814755314102833 M11.442557442913579 164.75526300848915 C54.630610098570536 117.37068784030643, 98.2678441750486 68.22221096793064, 150.456351713421 5.330634700034915 M13.841884286640628 174.4659056265421 C51.0286924447672 132.7606720683927, 87.81671097215315 89.87686248474819, 161.18550658422916 8.240498721326446 M14.168859964738836 173.91440550512658 C68.01122041603449 113.76176582601605, 120.89860206855948 52.75688554998782, 160.59777810135571 7.3243195378021175 M16.19382630976085 185.7840754747428 C69.45739210575886 122.89660168620512, 124.9256672531191 59.53903380844869, 167.44614588438168 10.82433482280655 M16.058187440618642 185.18468391110054 C67.3469631935455 126.21129124035619, 120.80615801187045 65.70667797234532, 167.83453422719586 10.532546006820931 M21.08941285264366 192.92772209814825 C64.0885055683736 146.20954094062978, 103.42537627020833 96.48719892109054, 176.7934813858759 12.95313431211831 M20.962255144534083 193.00052594061302 C74.20002405884904 133.0734316290962, 125.89012996401257 73.40351422630401, 178.05003271653536 11.8898365733069 M25.57273194569301 199.929781009232 C80.03145917393769 132.75252257966622, 137.51857798663622 65.28594420005227, 186.00411378034065 12.809604778823967 M24.628998228803002 199.65720661154782 C71.47095670122701 144.67125947434653, 117.62882504813697 91.33200635148822, 187.34318307883999 13.04546464031251 M29.559773845496938 205.9065835906685 C87.55485540180933 141.30572816561929, 147.19025974793632 74.05673155160618, 195.3276784668587 17.257914094796153 M29.904493264524408 206.1232754656754 C83.27473026343073 144.51642374561493, 136.57998048325274 83.61807816822096, 194.90768696539376 15.970562880648087 M34.0166135666407 211.14825724691678 C76.74804173288372 166.2204357265373, 118.56314097617073 117.45127965731521, 201.98082493927907 21.11254189927605 M34.52394485058487 212.00043331595538 C98.28905778784036 140.0988279669, 161.19782509778946 68.75227058958367, 202.47276478309942 20.934100552535597 M40.425998298357484 216.91478229316843 C75.4293367803507 179.7800037291718, 110.21357229354099 142.20019737925077, 208.09529377651543 26.460542919229965 M39.943612033563 217.53461199885763 C91.25953666150882 160.3794770970143, 141.93218254092037 101.46321113778487, 208.7183652085245 25.00287582773494 M44.46990131030153 222.79467299043668 C90.84565386695147 172.8566126776412, 133.61113624740014 123.3792933747717, 216.21428154333205 30.163659310183423 M46.02262123415758 224.6788382460312 C110.82969502098034 147.65565148945996, 177.35182212870325 71.53776121608358, 215.71602506292456 29.615117560241536 M54.23025685315511 227.25919125917906 C92.31164409148137 181.2325092439268, 134.35480557089448 133.61476218962042, 222.36789714249363 34.41326282159245 M52.64315363414632 228.48915768573522 C86.10210658462756 189.2730153269782, 120.5451308090254 151.1774684193375, 221.42334900841655 33.80897958659564 M58.05866167720469 231.54377173923086 C110.7359752433875 172.46412215342326, 163.77052070820574 112.33895784622827, 228.442372512786 37.34451980499779 M59.24279367872482 232.75771151742794 C112.2604864814051 174.22975835816473, 162.64311275590643 115.48037922128803, 229.94279386852926 38.26356848915695 M65.25383359669755 236.89105956322024 C105.33968228687814 195.56058171865664, 143.34084589731873 148.45819953963047, 232.5425334966939 43.358897149669964 M66.4345909750452 238.14182418256968 C119.60582983240337 177.05229871513566, 172.4935257551754 115.93675044747135, 233.37695404914606 44.864442169631815 M74.73932984115856 240.73137194322302 C119.95402576618818 184.7621244695649, 168.47590697974252 129.14329918999815, 240.30659866087439 50.40977003388256 M73.03349980401426 242.0219473503416 C112.4442204030605 195.64739698334736, 150.55152280849305 150.71441666931165, 238.63572937737814 50.87925438566927 M80.13024490512137 244.67648087514266 C120.88456000153099 197.37896230619793, 164.8143606504378 148.35146738062235, 244.7803301217992 58.413837062580576 M80.81180714058063 245.4017855283219 C130.53671228959857 188.71811147259297, 179.31290589371415 130.90675320667387, 243.74464061114222 57.914543337931995 M90.14903945165351 249.6628501679712 C123.47299771921489 208.17000009240095, 157.07039143265254 168.1812275374885, 245.9481011221497 65.49176008884056 M88.31504250381721 248.54559876225827 C133.89129389746049 194.42681641318543, 181.17173091575899 139.2032517944688, 247.11099535410216 65.47646506503554 M98.6629070873094 251.12863415490554 C151.7616290347328 190.13554378473145, 204.04723422625636 128.52688690396596, 251.79971713394707 73.38643188579599 M97.97526133597172 250.0034785339594 C128.4286136462981 211.7131226402258, 161.97896588315913 175.64708263523383, 252.80129433424557 71.89231549447663 M105.74094413832054 253.09146995382943 C167.31958129788066 183.91498787703173, 227.11189077028376 111.94450625927882, 257.23106192837156 75.76315631464989 M105.45207063983293 252.98033245820946 C160.75864175781857 190.54536342186873, 213.8901260351538 128.5867058616652, 258.9037575926127 78.12864249797978 M114.651021770755 255.08340485661907 C150.11774941913538 216.61783135718713, 182.51524568987708 178.71484573121555, 260.14591595057004 86.25178650980185 M115.94540648221808 254.2682086907547 C148.50624508779447 215.94915583921238, 183.20958774598967 177.2776112140279, 259.81261822615915 87.83159387079351 M123.97926641058116 256.85006434746055 C166.8050090681406 204.9381133931409, 210.55823266603142 157.34103976168893, 261.237601419674 96.07232307471914 M123.94769549110814 256.36274806477326 C157.94009089233577 217.02980624671633, 192.09460788960283 178.50589252708545, 262.422584549626 97.40497138764314 M135.5411078727121 256.3382885868956 C165.5471691761712 222.24988416436815, 192.94209240940867 192.60701423640367, 267.00795693447253 107.34994858793385 M136.24412468655655 255.66290967197313 C180.00012619993805 205.4505848266338, 224.76939635901368 152.89429111252196, 266.1526759949829 106.08371848530538 M145.76777179004202 255.7706569549843 C190.61841007275822 206.44328406206773, 234.56316279046993 155.58686900684285, 265.6808223760537 116.8377597636573 M146.8677835522736 254.4384316359862 C188.43253798524063 204.08066608490796, 231.58413067772943 153.68098971682582, 266.7993758319727 116.53163043102548 M157.78774038687754 253.19330771823712 C190.75709910234164 216.54063786519671, 225.24303072902222 175.95204671820792, 265.1881459235344 130.5930947606155 M159.4510946011584 252.96458526884504 C189.30975656227852 219.62120232513487, 219.12895081288048 184.54897349377768, 264.0517396769617 131.12716644822444 M169.07304383057465 250.2142533568336 C196.59262237982608 220.8997518548014, 221.0256551321362 191.51809761083976, 263.71251330225175 142.69110939854227 M170.47036046150436 252.0853449647917 C197.5873120960208 218.6338490656685, 226.04483250993607 186.19343412567304, 264.56146946622437 142.65410052069865 M186.4930039624324 244.82731136961655 C208.38421823626066 221.85300944571765, 225.30452739425647 197.09663274442377, 264.7110935635996 156.89927947850828 M187.67026918554808 242.59689638673143 C214.92679993566188 213.47938230085867, 241.2916765536258 182.87331996818116, 262.5009442120922 156.77993286358122 M205.63093565990178 234.2657150389931 C226.7141724201098 211.92790760677997, 245.0561400449784 188.92924221801655, 265.1625835488772 164.85204749935622 M206.75559561167805 234.72624723113393 C230.39476559886347 207.510488925111, 254.4381695002678 181.15770831942734, 267.18516446680184 164.85553663977737" stroke="#fa5252" stroke-width="1" fill="none"></path><path d="M191.0818021707267 13.067995108197763 C205.12443678641517 17.07705645773143, 218.54183940659027 27.355862932465016, 229.01751640238336 37.550748999003275 C239.49319339817646 47.745635065541535, 247.99672224917455 61.078521012406554, 253.9358641454853 74.23731150742732 C259.87500604179604 87.39610200244809, 263.336335140809 102.04176975534497, 264.6523677802479 116.5034919691279 C265.9684004196868 130.9652141829108, 265.47821948506646 147.14915690003974, 261.8320599821186 161.00764479012489 C258.18590047917075 174.86613268021003, 251.41625139006385 187.89302883640698, 242.77541076256068 199.65441930963868 C234.13457013505752 211.41580978287038, 222.19396994069922 223.0085121063336, 209.98701621709958 231.57598762951505 C197.78006249349994 240.1434631526965, 183.9942883233397 247.09625974190263, 169.53368842096276 251.05927244872743 C155.07308851858582 255.02228515555223, 138.36939959409705 256.47878293416926, 123.22341680283786 255.35406387046385 C108.07743401157867 254.2293448067584, 92.3241277789374 250.23361609068664, 78.65779167340762 244.31095806649483 C64.99145556787784 238.38830004230303, 51.98325468381861 229.69834897205655, 41.225400169659196 219.81811572531308 C30.467545655499784 209.9378824785696, 20.916435894916493 197.76552765822092, 14.110664588451144 185.02955858603394 C7.304893281985794 172.29358951384697, 2.195389738898747 157.64353517616115, 0.39077233086709384 143.4023012921912 C-1.4138450771645594 129.16106740822124, -0.08302574257940387 113.7832248435865, 3.282960140261224 99.5821552822142 C6.648946023101852 85.38108572084191, 12.576804910691754 70.35650482755774, 20.586687627910862 58.19588392395745 C28.59657034512997 46.035263020357164, 39.323052517303566 35.35326473564399, 51.34225644357588 26.618429860612466 C63.36146036984819 17.88359498558094, 78.4282197176957 10.368732826546744, 92.70191118554473 5.7868746737682955 C106.97560265339376 1.2050165209898482, 121.95765991682741 -1.5161161546303865, 136.98440525067005 -0.8727190560582159 C152.0111505845127 -0.22932195748604534, 171.48347840556067 6.172362924256172, 182.8623831886006 9.647257265201318 C194.24128797164053 13.122151606146465, 199.49696712805357 16.191072139793423, 205.25783394890956 19.97664698961266 C211.01870076976556 23.7622218394319, 218.55606612088798 30.29190855243769, 217.42758411373663 32.36070636411675 M133.2301924250273 0.3443970878974767 C147.59190459994664 -1.5085844986316392, 162.88499159508103 3.9051896148620857, 176.90986402767783 8.575494344198333 C190.93473646027462 13.245799073534581, 205.71949149965175 19.663079801754044, 217.37942702060815 28.366225463914958 C229.03936254156454 37.06937112607587, 239.05919313360522 48.6366915515911, 246.86947715341614 60.7943683171638 C254.67976117322706 72.9520450827365, 261.141718832882 86.92084612659983, 264.2411311394736 101.31228605735117 C267.3405434460652 115.70372598810252, 268.0195659636809 132.89761549216217, 265.4659509929656 147.14300790167187 C262.91233602225026 161.38840031118156, 255.92028589067664 174.2157638846023, 248.91944131518156 186.7846405144094 C241.91859673968648 199.3535171442165, 234.39787987166181 212.83477372720446, 223.4608835399951 222.55626768051445 C212.5238872083284 232.27776163382444, 197.26493051001313 239.56194278672314, 183.29746332518133 245.11360423426936 C169.32999614034952 250.66526568181558, 154.82084001250703 255.0118564056864, 139.65608043100423 255.86623636579182 C124.49132084950143 256.72061632589725, 106.91558675222481 254.42669109818044, 92.30890583616456 250.239883994902 C77.7022249201043 246.05307689162353, 63.907805032116286 239.31221462853557, 52.01599493464272 230.74539374612115 C40.12418483716915 222.17857286370673, 29.08845288448331 210.86607820199006, 20.958045251323156 198.83895870041547 C12.827637618163001 186.8118391988409, 6.645390122263082 172.6994864242575, 3.233549135681784 158.58267673667356 C-0.1782918508995146 144.46586704908964, -1.2606347104145808 128.8776927091926, 0.4869993318353636 114.13810057491192 C2.234633374085308 99.39850844063125, 7.24877436981362 83.32612939931245, 13.71935338918145 70.14512393098954 C20.18993240854928 56.96411846266664, 28.72065488888704 44.66482435144949, 39.310473448042345 35.052067764974495 C49.90029200719765 25.4393111784995, 63.54106263981412 18.042211203315087, 77.25826474411326 12.468584412139592 C90.9754668484124 6.894957620964097, 112.30506717426258 3.774951105904421, 121.61368607383719 1.610307017921528 C130.9223049734118 -0.554337070061365, 131.32722582349717 -0.8083411715511108, 133.10997814156093 -0.5192801157577662 C134.8927304596247 -0.23021905996442155, 132.54788170542446 1.0162316456885896, 132.31019998221973 3.344673352681596" stroke="#000000" stroke-width="2" fill="none"></path></g><g transform="translate(271 278) rotate(0 234 200.5)"><path d="M30.947191294101202 99.77769759880859 C30.947191294101202 99.77769759880859, 30.947191294101202 99.77769759880859, 30.947191294101202 99.77769759880859 M30.947191294101202 99.77769759880859 C30.947191294101202 99.77769759880859, 30.947191294101202 99.77769759880859, 30.947191294101202 99.77769759880859 M25.720148778223184 112.80943376724267 C42.04321088261392 94.24773500648269, 60.18867200489359 75.39650085109665, 69.81624378401439 58.80459964418707 M25.46548746030846 112.05295670558357 C43.08527024957638 91.501511983131, 59.99283030933162 70.65874108609265, 69.82390739533703 60.73478179940877 M18.261239865381576 127.41832210591761 C35.69655426953555 106.34902751480396, 52.798343596346655 86.17800881138515, 82.88162001512015 53.158830017241485 M19.418637020100213 126.13637752926675 C35.87423571373542 107.42073022566005, 52.459232807766945 86.9365136196133, 82.97138985908592 52.43896808886791 M10.164803722865855 141.33040482706144 C43.64727827939639 102.9464799017043, 75.21828979836053 64.12147839579278, 98.31928781116729 44.399191676916985 M11.767435772336995 139.98206484845593 C34.00509110068093 115.11598998291747, 54.818049656356905 91.54786591643125, 96.32768503645782 43.74165367642274 M8.63306366524408 148.78671155871248 C26.80785035415335 127.00340086396504, 49.86423514212157 103.53744088240563, 111.12167881278086 32.19340923258858 M7.289912695649363 149.54625825212693 C27.541333711334033 126.57563203151669, 48.589055079257946 104.20158612810184, 109.3086864821403 33.24061688238578 M8.939892304150746 156.27217649046855 C39.36278841019576 121.30842552129141, 71.65613369061437 86.02465058256742, 119.88316910260482 28.42956395407682 M6.7771523157343125 156.65019564081507 C42.92257650639725 114.8397159039966, 80.40592331262894 71.79091176096745, 120.49863844283982 27.750086437515073 M7.305047664248818 165.2468000525957 C35.965689282840316 128.38218623508578, 67.36002915669563 94.07351192001657, 129.05007920530215 22.96609377164777 M6.532530821317309 165.08627490572388 C47.68697971757178 114.92110986435043, 91.73429732273476 67.40169001431651, 128.52513585728184 23.425741483014185 M3.7365863861632818 172.61268185446895 C53.9372922717136 118.97970946868203, 101.87432418701637 61.21248292745926, 135.04338243544086 20.32527831333983 M5.839129267085838 172.46008686716593 C56.3567722563271 115.13467103248888, 107.42014921073181 56.443681771538806, 136.80683270409688 21.833196607859016 M5.527564935142676 179.41100630692617 C53.2361844904995 120.52363703539332, 101.53760628080913 64.51200610556421, 142.2102988479373 17.682694044224114 M5.134982713878164 178.400265247627 C45.6874325864342 132.145258083362, 85.82251895744503 84.86328383350921, 143.89961451500054 19.116840453340846 M2.3631448741837984 185.08609602901538 C49.43932822064279 132.32419636554644, 96.286315028898 81.41928359128883, 151.2581592132043 17.877332742554962 M3.321411170785247 185.44910887755782 C53.43365305505662 129.12627868102587, 101.31544730267962 72.89938152810517, 149.92469736824896 17.43505330340841 M1.650765254483008 192.7339149008193 C35.140656949304926 155.88341824469535, 70.88647402440773 117.98868981495329, 158.56730803258267 14.481886672014173 M2.807898729297478 193.2579504701061 C54.402841743564714 133.06444617253962, 108.69776546696801 72.2796822095922, 159.02692997905473 14.990024025790358 M0.5216607048224913 200.9512617061127 C61.34245632614999 133.08352335306532, 122.57534058100708 65.07957581991609, 167.44536046096957 11.234429451351355 M1.0520858486852782 200.46389150669862 C65.72246652076826 125.87436338901264, 132.28970058124892 50.5044990112783, 166.41273167118072 11.863938353717883 M3.8755028728542005 203.7548343085989 C55.35842007167357 145.9274679683465, 108.78473614365434 84.65611921043813, 172.44763068786668 10.001197716830088 M3.4952647679944837 205.30111062519043 C61.2396561210292 136.2012861825021, 120.32158084126702 68.67388075445882, 173.61140016012178 9.505008942921004 M3.8117099670850885 211.6674894535529 C61.05404994214114 142.7563598441568, 119.5557039646366 77.63155162369736, 179.5825592202904 7.550714037343697 M3.460849585617907 210.1166108512374 C63.9412919942992 141.98114643412688, 121.90422511969385 74.78386809314637, 180.94529662328958 6.627724610788285 M2.9124276406133944 214.52932464470294 C55.075457298891514 153.86126602903548, 108.16964375628885 93.53554688804437, 186.0247384097706 5.921811495664695 M4.340521386927997 215.6691385969087 C55.15760181231005 158.6072116654658, 106.52742734535887 99.11432586893898, 185.8621330478777 7.366077163063451 M4.256252585300457 219.91626795897108 C76.24316473734767 140.21036155174974, 148.69565095848768 58.575396039531874, 190.62480167856728 4.954661637584045 M5.566527004889886 221.02870876027922 C49.55104228938596 170.84531728345425, 93.46233259623962 120.40828505178888, 191.87370050426435 5.740804061946342 M6.9163956065966445 226.7840360723475 C74.48747527195684 144.39710535200595, 143.8558411696397 65.05530334566889, 198.95696022519954 6.629525400690583 M6.390656093218947 225.21804501749867 C56.78850090053325 169.49859813744035, 104.12521983528408 112.58745613313404, 197.29099323991474 5.095629118645274 M6.788753920018944 231.22990358718846 C58.87979261038128 170.00477634363298, 111.95441039722606 111.64765972527371, 202.48841490394815 5.974264533865178 M6.884076107587542 231.84066371095818 C71.40352590371633 156.78685674872426, 137.2716603567266 80.88289790465763, 203.73644319762516 5.046164617516906 M9.117801890713347 237.28807930173477 C71.77144956140161 166.7820461674375, 131.46176087692638 96.45988095911918, 210.21833183556146 0.7660969548726884 M7.582110129985531 235.70453720936098 C70.1471833931371 162.97912574870463, 131.73541225755147 91.86827502976412, 210.69941888556482 1.7701836669296158 M8.556089684893731 242.0205937081384 C72.42012175216936 169.4955815675563, 135.1655448729152 96.24901563055296, 215.26765701632127 2.1080262504179292 M9.120634214327605 241.4421108107082 C87.22303077634098 150.8193462333743, 163.90277841225804 62.998877495358876, 216.8373248556729 2.950604394326497 M10.064238650640062 246.33777715564653 C64.39300811513888 182.8612154627831, 121.20907765585147 117.88201974061022, 220.00932723753093 1.9792047029149407 M9.087080536085065 246.10065667132463 C51.48054359991612 198.3876299541459, 93.29416001802196 148.7997562820632, 220.59171434251223 3.352229255546292 M9.733794803895707 250.91242848393347 C94.88580506130025 157.50626427625247, 177.18962168270667 61.545029298268766, 227.55607917459807 3.01355010890241 M10.296669437345654 251.93743094636534 C64.55320973932979 190.37834765709678, 117.53241717917021 130.49370211992013, 226.57910460160156 2.749616994412843 M11.400999715826865 257.0849198191725 C93.02242220476737 162.09931772854324, 173.8536222376404 68.12006444659724, 232.17999423393292 2.608904899719295 M11.150909610669666 257.06080977606723 C66.61295403032449 195.17146796943172, 120.94462535195807 133.00219352676694, 230.61263600568284 3.513851439731215 M12.02495355830795 261.40770096745246 C92.4576610392409 173.15351745748978, 169.1409535844141 82.83828768801797, 238.0655316836294 4.336504456836914 M12.258311680403983 261.87400386508045 C94.28158777592272 166.94200930557164, 176.90202890010337 72.47361945808518, 236.20398127034758 3.7692065309323586 M13.694072391880344 263.6587619037001 C84.80675757084354 184.96200188950405, 154.15187239487068 105.16602063831192, 241.7624680599281 3.2951080115973825 M15.10284868091192 264.38105294703075 C77.02609388519778 190.44123899541236, 139.79649432544906 118.05952378464815, 241.52565836826878 4.029573924087082 M16.195045766644647 268.2806626952779 C67.96170291594524 208.89140966379475, 120.10542553883354 150.62075954310924, 245.71840177519977 4.102931529194855 M16.587201885159825 269.35899394146224 C82.99138983620283 193.41064823426822, 149.78211924951117 117.3304141652392, 246.74125427481187 3.3662139055417084 M19.2634295069325 271.24324849486777 C94.9044869237242 184.50141402813986, 171.88580752187968 95.56353703376108, 251.75244887495285 3.849418950333998 M19.514827115979273 272.1397947916049 C78.06943195592181 203.5857172386438, 136.75301310252019 136.1399089866216, 251.92448572414293 4.394126204262108 M21.453918646088216 275.12159622435854 C70.1301328046261 222.9074219519887, 117.43012701204044 166.726967424359, 256.1874894240553 4.836224332366673 M20.101849461876544 275.8651795427707 C86.8582606512779 198.48569874656263, 155.0425453238318 120.54633126162408, 257.6315054779849 3.4402515670870346 M24.21953031186611 278.90981815163525 C84.83763107140682 208.2294615179588, 146.7445163390294 136.63248569622624, 261.49276421729763 3.334752173837962 M22.767827117370164 279.61267663781774 C86.35307100416965 205.71382978989115, 150.63464566279762 131.81403563459645, 262.83593681169157 4.598768163656803 M25.54598395054098 282.7389989708049 C81.73912426893274 214.88223518669017, 140.07879672999982 148.1072682209154, 266.32818608010723 3.915886293358886 M25.210536171429275 283.9611694696581 C116.28807819737784 178.6594694909684, 206.25062580077335 75.2298445938012, 266.90831974617856 4.458229222673701 M25.99095426953992 288.61761571309313 C98.11682316838964 203.526163813573, 171.22702188539304 121.6414152186264, 272.58812246959064 5.074665104457891 M26.217466347194804 287.7004689920352 C113.70896300543528 186.19976561075322, 200.7410327612571 84.9775078390133, 273.15592129900955 3.900395186295141 M28.009085222239623 291.4921974423944 C94.44613708319966 216.6759201574993, 159.87851220122542 138.3485817737996, 276.72067855913014 6.097930085683157 M29.09086070867195 290.74169661733885 C101.94727400174212 208.65268339667293, 174.84698063903338 126.20461825662912, 276.8567658500395 5.512093571056925 M30.473531093673785 294.8322697854406 C129.2957577180782 182.06283108918268, 229.41691057748963 68.52236418931564, 281.90743137978785 6.163153273215644 M30.423141141244894 295.80274009038254 C97.93183090968444 216.15920997398865, 165.22638268165983 139.46949409777932, 281.5172937276316 6.363184439510627 M32.31795998753678 298.98588941076866 C129.92744499605368 188.771994283688, 226.63374131612764 80.09908513190372, 285.16805858078175 8.121620073975471 M32.52536189553676 299.04546647789687 C112.97893271409055 208.14566177820626, 191.95379852275101 116.70212856346114, 286.28270656511484 7.567635015866936 M33.40105927786276 303.5766058804415 C107.71626828585678 215.53028320185666, 181.6952892360432 129.962891134095, 289.5761587546666 8.55774208871145 M35.03417438277284 302.7804069950636 C108.50838541104059 216.40179377699351, 184.6714098914463 129.59495034214822, 290.2482681390159 8.638430013482454 M35.59488710846357 308.0361315555061 C99.09493638255526 235.39148530018866, 163.58773375635803 162.99924687231078, 293.6973601344757 10.668903271705334 M36.54321278199434 307.2157465593452 C98.88070695141454 233.51408812509672, 161.85770617983553 160.65738621753738, 295.2772752770386 9.372842726193873 M38.18155630016525 309.4437469692752 C112.61593593255569 223.66680919837847, 187.67031770958468 138.1095880553166, 299.96485830314504 11.21803473211953 M39.66444998124619 309.1674320274195 C106.80654117888655 232.0692869104929, 173.97270813118405 155.31639525873706, 299.5067738088525 10.477294735729375 M42.82347844792505 311.88575946459 C120.53288240991816 225.63171967248803, 196.16420587728504 137.1578321821813, 304.44536247637114 10.875847346869893 M42.40638354918224 312.2668198503418 C101.20946460168913 246.54190115752323, 158.05350971437178 180.74415606808708, 303.6759527725037 11.905333562252675 M44.34979317561662 316.77081582759536 C109.85257992565964 240.54633428716542, 175.66680774796544 166.62805360979834, 307.3525203095518 12.826006031772977 M44.292050101106064 315.7744565288122 C127.06355991202413 222.42738313733582, 208.91840681090466 128.74303605482265, 308.13979273856677 13.51507181448627 M47.07668902876973 317.86816296358774 C134.00957668308104 219.22330352750535, 223.3718062783536 118.96087207784186, 311.9414202373075 14.659231148074271 M48.13000161056771 318.31736373408506 C129.32772510335064 223.08210343801653, 211.8907379387222 128.24228969704905, 312.2526208668072 14.584244929275965 M50.71235115533753 320.37552290134215 C106.34531175601789 256.95543682132217, 162.7186098399722 191.9740084059515, 316.07208678828295 17.004905285312404 M50.94628602187772 320.7582968626657 C137.56056052606655 220.0459277319351, 226.08328539894353 119.02362106990523, 315.34184853333335 16.325160614273667 M53.66077673728163 323.8203912881817 C139.67073341100362 225.62544770435164, 227.6506126083486 124.8838995257611, 320.6684841622976 16.946819565818 M53.20707213795717 324.560299697373 C134.83005289568933 228.63271774869486, 217.83509062558352 132.9335322983199, 319.8079328454811 17.232031118281046 M56.26972050443125 327.5314909495025 C159.02224080520605 208.97597537105244, 260.0162036797957 91.51804874619548, 324.79243165999463 17.998848520057603 M55.659481525994906 326.8092828489874 C146.23851352844565 223.95888111932067, 236.70479997883362 119.2842847442865, 324.3160050498135 18.250806067931542 M57.474868740148366 330.2580852138725 C121.38730924150853 259.08565452183126, 180.83048305072109 187.6650328802403, 329.48574775281827 19.12182883136815 M58.5502083358307 330.56897959607625 C153.45402384620735 219.80586307056154, 248.02997046974963 110.10962480194532, 329.155140357892 19.26789874369393 M61.22537597011012 333.9008950798876 C153.0765462176829 227.9537885633837, 246.16276641419213 121.88794518051462, 333.9548675346318 20.912931571194967 M61.842092413564515 332.8286546668561 C135.65652625003645 247.9924967524954, 210.2029087848021 162.40829423092222, 332.7627089334313 20.488704226384712 M64.39600488369119 336.5761989339735 C155.39186271800543 233.37350840004288, 248.05310141330455 127.83731637602105, 336.17829207716153 22.93796482412979 M64.43438643277173 335.89569060051565 C146.80771158273834 244.64910782994704, 227.51688010919585 151.4884786200135, 336.9981724583186 22.71177965779428 M66.55910949849978 337.9057987223295 C129.6231169063507 266.7020899912567, 191.06036867423168 196.6017100852179, 340.40583515948043 24.596473841097986 M66.56676362648005 339.1957848584217 C126.86085683406243 269.88127371691047, 185.5497696509066 201.07042462755334, 340.86722618069956 24.595380708780393 M68.79975178946168 341.9542597273259 C159.86888456476254 237.67671634102354, 249.4217350840977 134.238057549166, 343.416877181396 26.157523328534005 M70.08574794713279 341.9716754693489 C163.36536537183804 235.73390039664605, 254.62373565677203 129.97881070830834, 344.48457377407175 26.615237980667217 M72.47699180630342 344.07380145729957 C167.1938154049084 236.4092982152661, 264.2662109512743 124.53424194692481, 347.2112826771097 28.92757812746717 M72.19191377559498 344.8442491302093 C174.59598145739562 225.42333886498426, 277.4402103712593 107.02566629539058, 348.01479186109697 27.677346376128458 M74.96577966197263 347.310470847802 C147.85624361324716 265.94429742739555, 220.29781489364683 182.65139548272126, 350.9209277424194 30.544278074686535 M75.45108404981922 347.6025925901442 C182.87216938115853 223.48867464353947, 290.9866396231641 99.66617429172011, 350.4249840638261 30.76294469820787 M79.77229088237146 348.58104512190306 C187.4613110991064 224.3211283556262, 297.9566633405485 97.2365238214407, 354.6830364258767 33.562111644274076 M78.96483116673174 348.98213147708145 C156.96139528894264 259.6426350868466, 235.72091792092203 169.7057372108852, 354.70045837706584 33.02443349587354 M82.76962374380219 352.4247404266928 C176.7806078783667 245.49208076660037, 270.5077984571665 136.38018596822346, 359.01371675042355 33.848219446362414 M82.04651025967344 352.60514004754424 C168.8897861395734 251.5938951312791, 257.3593938557775 150.13382152660407, 357.98466259893587 34.125800982341964 M85.88546089553049 354.6103987042438 C142.52932481455292 285.65343689284487, 201.8281760444155 217.922679972029, 362.24949819244733 35.555524173657076 M85.42566403708324 353.4606221965725 C146.33707503373412 284.5424304642378, 207.872622320834 213.93444266203937, 362.13030107172534 35.95093860190862 M89.42050076636279 356.8817940511674 C188.64632729979832 241.18391851545653, 286.31145646921505 128.69523173811095, 365.3366603320906 37.885238898058695 M89.24853624937462 355.49664891491847 C172.652015446561 257.4782557588223, 256.80687811043833 160.6094362392217, 364.9882226245135 38.62702444255074 M93.7569686941897 358.4766821858228 C153.7768364246824 286.1819893845108, 214.97453467823345 216.81704823495383, 368.7778716697442 40.28693317542657 M92.97825928697725 357.49639383402734 C198.98258396245114 235.0444463981979, 304.49221224670566 113.30373134197788, 369.38358516648015 40.06713411696356 M94.98999016325335 360.6946621394448 C168.2968621224437 277.9581883362099, 239.35729763418064 194.8486909415539, 373.82433279035473 41.260938968824554 M95.61194160908512 360.50275508487215 C170.16695330690678 275.67259851440843, 244.53383971821717 190.06196872834028, 372.9475128030616 41.882671543361425 M99.36589084808722 362.68634135568135 C155.38376644764696 295.67713933438665, 213.74502800748934 229.75593975144562, 377.3059725159631 43.53290181269477 M99.8273303707623 362.2105196044968 C183.23531174322937 265.7165506891771, 266.37431956775254 169.53044471204194, 376.02844688036225 43.60299612370544 M103.55572958724542 364.77953206217353 C206.1264192532771 246.21503870826103, 310.19513468136404 125.47499427366606, 379.1909097213842 46.491048691644906 M103.20960886960835 364.2135254033345 C173.76278917259697 281.80209277648714, 244.33513627231977 199.8926667450377, 380.01974378130643 45.39764399913152 M106.30738928269449 367.15125786599975 C197.43800648894705 262.3458708150459, 287.4165120518282 158.78007392960038, 383.1165924367093 47.87383093462824 M105.98347894162302 367.1547616052113 C173.2306068876183 287.4250077036144, 242.3140084638413 208.17687231366872, 382.9331734528313 48.36709535752847 M109.48376272649743 368.4886292804449 C215.0248794027517 244.79178919620463, 321.4705134360818 121.97401827120095, 387.4888542821267 50.15663347680473 M110.26522598321502 369.0591022948479 C180.56382644218357 289.16991323689643, 249.54659919218514 210.3893314167779, 386.7256239522831 50.00006959767931 M113.19751859693244 371.44766864969705 C197.80810046910332 275.3485643085853, 282.38066256664473 177.571824730214, 390.563161492775 51.92124226549704 M113.40958751271157 370.45781262358554 C169.58432855582342 306.06372453449194, 227.55036754623052 239.89502382283254, 389.99110450960944 53.23400308150951 M116.85980180566874 372.82089234276134 C215.27870229646 260.659125927955, 315.44735419805045 146.37888428528996, 391.9761110484473 56.234076507914374 M116.8053952055339 372.71922523372655 C215.8021013505064 260.4128208223887, 313.2732066599364 147.75237415430675, 393.0153517788661 55.40087535300914 M120.20253587423883 374.95482829093675 C184.13301627775763 301.7045904067293, 248.75054752010095 226.20160931271138, 395.58717430354733 57.593185420668554 M120.88150614382957 375.3293877049673 C208.792125301852 276.2102399023958, 294.70882993035195 177.06002661739902, 395.6152923189769 58.218676223301614 M124.80875447538227 376.32133048620017 C211.05542747600663 277.6992420509813, 299.12646592914825 178.0723974031262, 397.90755463826383 62.00623688286726 M123.74590092235772 376.7525484385892 C184.71345206642968 306.634467192744, 244.50413788599562 236.57942253717243, 398.67698231030744 60.94088849944368 M127.90713579779796 377.1917812322928 C230.8912452840091 258.580265606481, 335.1284463047114 140.72455729808888, 400.421837105129 63.58946411372966 M128.14806295967855 377.64709477068527 C189.94874903471927 308.54043679715977, 251.34086319685335 237.46407769206363, 400.83010869258993 64.34735284160757 M131.01351583244085 380.10440788279135 C201.7618480970262 297.7724256839873, 273.1583277023163 217.16723057046607, 404.77304715127735 67.15070932531579 M132.2621673226587 379.92746018861 C188.90241054396304 313.40510595870654, 247.80468627783603 246.36340073996857, 404.6342784349365 66.21999483591547 M137.18294035712023 381.16917430171947 C237.3649205196673 267.097407192044, 336.4303645796526 152.60080558972578, 407.9443377965445 68.90427620116637 M136.86414917620218 380.9739330074001 C225.7771909636219 280.5470806227599, 314.349031438874 178.55936632631966, 407.84214100980125 69.70064571700271 M140.40632752015628 383.55192601447885 C232.91609724706686 271.7090252839615, 329.49259090294794 162.9364423672837, 409.2773546772842 71.12657316446959 M140.56173534061165 382.4410248153971 C207.594584081634 305.7102710229406, 274.2829691341451 229.07454323249095, 410.7500522293111 71.67426225477503 M145.13514091827858 383.70336559736785 C199.3619549466555 319.488869266331, 254.04169299459474 258.6696349792789, 413.9630363764295 74.46397379088691 M144.44174841590151 383.76733535451774 C235.69007485446218 277.75482239194844, 327.68949572141577 172.02898093246316, 413.4474807532584 74.23487969807046 M147.64454380210304 384.1376183079276 C237.6778744617881 283.0583727272082, 323.9209420363913 182.23643668270117, 416.75291031629405 76.65753177491878 M149.0536201398107 384.7871693944362 C241.67367324331386 278.05084005662525, 335.6943371677832 170.47283327775895, 416.2866369952891 76.59218154428169 M152.43926398180537 387.8084207209058 C219.26011822168286 308.83811143393035, 285.66665074034916 232.47398521268798, 417.8304756783426 80.85660238564898 M152.46194804359948 387.3759899843724 C236.75336915594178 287.6299696321353, 321.44253689695626 190.4776912124192, 418.61511388695646 80.82576318452314 M157.80946718187664 387.8767789805385 C231.6386677005285 299.63729892391626, 308.6526305114711 212.4800753019864, 422.3999381333554 82.52292388664937 M157.1073698880779 388.27832682154997 C235.97203926851378 299.50997161990693, 313.1242559116356 209.68355772672155, 421.8777561018636 82.8392305454129 M161.26832384378216 389.5268290236308 C225.55806278456004 314.7661051930829, 291.99221476456114 238.08979145693272, 424.58932463965516 86.04604986580172 M160.14753822931445 389.4457482526451 C223.957227390838 315.5892234872023, 288.98195549800835 241.8003414817536, 425.0496667246501 85.29190985419899 M163.8813040128255 391.5845333360215 C245.99838793760858 296.98984658822906, 329.0568908774953 202.7559128858031, 426.94216288264937 89.31884582227914 M164.78421722367796 390.4316543949295 C261.5302588738992 278.6799398233498, 360.27840176892386 165.37036546337546, 427.7454390357725 88.54601402823539 M169.22524374537664 392.71618693133047 C249.41425774267913 298.1032193609676, 330.07633758502044 205.78356415941042, 429.21378558514164 90.636888191598 M169.4401219953039 392.05786916923387 C228.01996241150437 323.83762879322256, 287.4237190810378 255.35811288932817, 430.53657233110545 91.64627461112063 M173.0704077751961 394.6544143473838 C231.9893337315465 326.1351015338176, 290.94803642134855 255.21801240145737, 431.5850683231741 94.28889171684125 M172.42911334681548 393.62273718724384 C230.48822145684355 328.67164018588176, 287.36951417614983 261.9613666814942, 432.89219366117567 95.20721039041602 M177.91481481695118 394.13240972510397 C254.4463814328176 305.50269062543106, 331.364574019269 216.451069353886, 433.2811663552595 98.68062365314819 M176.7365474731403 394.6889414306101 C260.7756490610195 299.0630482247991, 344.46978504715116 202.7996712348053, 434.44345731066824 99.41911619066865 M181.20266158049114 395.31607938483126 C249.308578054573 318.91481099383316, 317.28287533197675 241.0997908948874, 437.2125339706437 102.64041703027519 M180.87296278523638 395.7124840428394 C281.87238844831455 280.60752525144414, 383.488501864702 163.38382583533723, 436.48963282197496 103.18468244286001 M186.88936968746575 395.5054351942335 C253.58385162938285 318.53534510707857, 321.17666030510605 239.16644352862508, 437.9694246607617 106.35585647991398 M186.09089344763476 396.0412623134437 C261.66164544223335 308.02956522554535, 337.1329383850881 221.17546707383218, 438.57447447888364 105.81693904263618 M192.47386194618514 396.10169507892937 C286.29841658864694 287.00506210521326, 379.69111515857304 180.1053723475873, 442.20500844371344 109.36396730555448 M190.77865679605645 396.4402900162437 C288.90920251024943 284.3845666390487, 387.4697059962519 170.55903890266373, 441.64183831552896 109.37075131312118 M196.88569246087047 396.6938798940362 C253.53753511367756 334.2924239067198, 307.7122031702091 270.8347898737811, 442.70190210713093 113.11985607464042 M196.49603446093775 397.4987027417203 C261.8549585630567 320.91983775050807, 328.2785132203637 245.0543656539207, 442.4546743432121 113.77525675107731 M200.58640864147935 397.5894288848452 C282.8728595521534 306.46686426212995, 361.28147578577085 216.26052666715393, 446.09990030605127 116.67377132517096 M201.22111160359555 398.1872939947716 C258.1417151557599 330.9412750979874, 316.3672042439627 264.0715645258493, 445.1278726204992 116.78116364021496 M204.775475378944 397.8604226824585 C290.62559614149427 300.5590973488949, 374.9404813492362 201.9074929885765, 448.7473603089836 119.78835603538404 M206.06603079071462 398.3573954613827 C268.6993817111217 325.04145780829083, 333.24992914804784 250.0456563736446, 448.1239270492477 120.43583052403496 M211.27565358695242 398.53836949359794 C263.4873085784289 336.8109698369449, 316.2489284683034 276.5933599093484, 450.27858156886106 123.43886913951887 M210.6996138743796 399.13969188990137 C276.30404082914635 321.7533865099349, 342.51899347995084 244.49913285797263, 449.73477573309924 123.87117908093207 M216.62119926332255 400.67812399564656 C309.67520627170967 289.8166473740986, 403.2454322513324 183.0563280541804, 451.3377174858945 127.4761566042015 M215.29060275081656 399.3199888192062 C278.66210210748346 327.189022749541, 341.5574651023506 255.12850960411788, 452.3264041342826 127.93640094954138 M220.16227385410215 399.5954563556661 C300.69562990034535 303.37606017440106, 383.6986200684301 209.21466825002636, 455.1847255929565 131.181546158965 M220.40477366999792 399.2801350601157 C268.8014461916649 344.6924956572783, 316.3939837689967 290.24477741631136, 454.28118350213225 131.67167278140707 M225.7036250992846 401.21095579921 C289.44056949800273 326.2350054105076, 355.1493679650313 251.60408201685485, 457.47777414970955 133.84471474844918 M225.00170670837056 400.5240271871867 C310.67535290131036 303.03856789803643, 394.8693086170255 206.2324665172703, 456.63998196906823 135.00466061192202 M230.12612297514528 400.23556550989315 C314.406347618766 305.82379364899845, 397.11013916293524 209.45844518216128, 456.59558249918365 139.50763694007134 M230.84385530631073 399.93192639657804 C283.4039996116694 339.92181346832933, 335.3779231934233 279.3739194952136, 457.3967273098373 139.20659680309456 M235.07837010621424 401.8753389758967 C300.5926628764426 326.50925375409435, 365.7433713152532 251.65219469158274, 458.6086158323938 143.98761785399378 M235.29077387659495 400.8381350240154 C281.02736194453894 349.0266481902845, 326.9212181776487 296.73099891541773, 459.199874798042 143.89484065665508 M240.72787478733383 402.15556694095227 C305.2774686550175 326.6947524586897, 368.39545610460294 252.06140952395432, 459.0405203330498 148.3111865419561 M241.0232153675538 400.7450731401622 C307.8319280875359 323.0913778054557, 375.5602718702704 244.05884086205793, 459.39431509539185 149.7319331564507 M243.1384137531206 403.6608116332174 C305.23780115541524 331.1402554834295, 365.12658404081367 262.58095936090086, 461.490961553919 153.20289024612222 M244.74989025893214 402.7764636625341 C317.3744642512543 317.9134055646207, 390.2177913204815 232.8103428312962, 461.24313749645836 153.52913256124913 M250.52600858925166 401.24598339549004 C318.99489034051436 323.77541534877696, 385.540511982759 248.2895638831731, 463.110300406694 160.25618367430198 M251.00495414349035 402.2494936513161 C317.3888960588269 325.0379361531739, 385.32067612812136 246.42168877352765, 462.4527054905373 158.48614747271353 M256.6424231739073 399.5251305827003 C313.1237729122817 336.50217988306804, 370.5326213703445 269.24588268396263, 464.1597876449565 164.79801696311256 M256.88621905177223 400.9387998021046 C313.64980122391313 336.58741887491084, 367.95818014545034 273.5434248235058, 462.41772767071785 164.18110769122825 M261.7483559336762 401.6735618467086 C340.2115200799324 309.39380256892827, 421.1542964239456 215.22684320620127, 464.13111171489004 168.08770705381846 M262.60491411177776 400.8439097885728 C315.9253890924232 336.2187446757995, 371.18124485639856 272.7566040627835, 464.4497834590726 168.50312808930173 M268.81200459508665 399.001082467578 C322.20303386847354 335.2851300009685, 377.80146414014536 271.3783901404514, 466.28403977442935 173.29563700232285 M269.2865371414135 399.37333341176264 C311.7704079876861 349.40577366451106, 355.31690988634017 299.96111314458403, 465.0104271533605 174.21172538929537 M275.3382718427565 396.87658201886273 C326.03570500484165 339.369748250805, 375.20830704678144 284.5078913890283, 464.6916571377575 177.99266853793202 M275.5913385717794 397.4898138792053 C335.15760914734136 330.2151205844366, 394.9779990085103 260.9868424305237, 465.7124666415671 178.24930693449397 M280.4283721495619 395.84686309682746 C326.50126735845765 344.5216305509555, 371.29279950117757 293.28090569685094, 466.45273240665654 184.11126149050446 M280.9613344998358 397.671103568745 C346.55547161904536 321.6043692831916, 412.6319842847591 244.86831672099746, 466.8454863499497 182.72959579219486 M288.40011162922684 397.21650086168887 C326.8877220970474 352.6834656775438, 363.9083628566711 310.70223053072266, 467.37338049607695 186.5470110452312 M286.5535755196185 397.18597956008546 C341.5744770928854 331.80141605725083, 396.0886593091708 268.54875404595737, 468.5854815904132 187.77548615282103 M294.80709574371724 395.11301790745324 C345.61230779887694 333.61655796689587, 398.6077662635339 274.9744252094707, 467.62103067993104 194.25834535557019 M294.0209977125592 394.9067382760276 C355.37731074301104 323.23669851811223, 417.280779194696 250.6055287563469, 469.25304155796874 193.66653671482823 M299.33877362074423 394.8009991496791 C350.9750967229314 335.1870841800873, 401.9006671833421 277.332435873821, 468.66302698928894 201.86695863561937 M298.95290819320047 393.8515341865261 C342.9374654556457 342.9746313922037, 386.53304653311636 293.5891919947325, 466.9458060132716 201.13412370348618 M304.3550592868359 392.29702074249786 C363.4782354216574 329.12901074624625, 417.49859852445854 265.1080731144113, 467.5740546166236 207.73463679737367 M305.27246686992675 392.75351852088056 C345.502945463944 346.66786331249114, 384.77961553984625 300.77607617554463, 467.3861622054163 207.46607461099768 M314.2993452084837 390.980833518412 C371.1668886639213 323.51056701408527, 430.5844938061243 256.39918107095315, 466.5913188261813 214.76727624345727 M314.0235941246558 390.89166126072934 C359.89299287312093 335.77925494428325, 408.4643151000702 278.60017475941373, 466.706963474119 214.38554084324625 M320.6538795562265 387.21896114406735 C360.2098866992212 342.7451062096048, 396.02543475526977 298.97903473807366, 467.5047162557433 219.55605569993392 M322.0893556741508 387.9119974662904 C375.40450365212683 323.3657429728728, 430.1427369875721 260.71908889685415, 465.35844713743364 221.83906977317284 M329.3218184029002 382.65435586426594 C361.4766455437423 345.92175140954686, 395.77407256696426 307.64868159222084, 464.92549569579296 228.62043902212633 M329.9564391588949 384.0749708866544 C374.7980785995574 331.9252296648296, 421.4868693807738 278.63071161035725, 466.08333600445064 228.26790303752293 M339.8645046567675 378.29543842549003 C374.23680084691256 341.70864595581145, 408.52290996543604 301.7149491021408, 465.0197058174402 233.2716569431896 M338.17807527912225 380.6629501114277 C367.920079509456 347.2914266217015, 397.6043369789492 313.2473518596146, 465.31083803285065 234.51482702203344 M344.56939388544134 378.6223582577094 C378.0425632442865 342.44805007506716, 408.7671868376731 306.42345072901196, 464.8584103028446 241.31620614999264 M346.93106652901344 376.922536126165 C383.87915834483425 333.9656983407283, 421.631417482605 289.5796741738666, 464.2254803854197 241.15616213181346 M353.40370792679715 373.0343130775771 C398.5658067173725 327.04684160310796, 439.12595254152114 275.86963799593866, 460.98594172160347 252.84604722993288 M353.23667366214323 374.1233239681504 C376.20830400715295 347.63882130467005, 400.8322763664267 320.45122888009155, 459.0890792184623 253.3961581027678 M360.62569439246937 370.78186207469093 C398.26968711293284 327.37194859577454, 432.3578619740559 287.0405678539769, 455.7613463013131 265.241338551717 M362.0187937042086 371.0787390379189 C380.87470332205385 348.5342654902033, 398.58148052475065 327.3023609615673, 455.1489864236373 264.0176832645406 M376.124312712988 360.02469655619814 C407.8589546108419 324.8836247307379, 434.3758674968906 294.66250760169834, 451.55167374057976 275.5978855642744 M378.148441749802 360.75743260355546 C399.47667822912797 333.26995651816895, 420.2134031249142 308.7962842280258, 451.6019636136135 275.14034677699885 M391.33140423907315 348.97763693370143 C409.06643849206637 328.5558391471649, 423.44459271533924 310.8737026785456, 447.0138001220473 288.7412695374257 M392.98092106370603 348.8042787876002 C404.7198445328297 333.8516989074334, 417.59283480009924 320.44832335601865, 446.50100503509725 287.60962737090057" stroke="#be4bdb" stroke-width="0.5" fill="none"></path><path d="M209.9066809686821 1.6036830806543492 C228.79100409941393 -3.2207145883740695, 252.03319505073893 0.7248814449656322, 272.3732897195604 3.7170373870638684 C292.7133843883818 6.709193329162105, 313.22657313705713 12.142702579409644, 331.94724898161076 19.556618733243766 C350.6679248261644 26.97053488707789, 368.9251529159429 36.92100559112978, 384.6973447868821 48.200534310068605 C400.4695366578214 59.48006302900743, 414.85009484247126 73.01437431062058, 426.58040020724616 87.23379104687675 C438.31070557202105 101.45320778313291, 448.37812035595664 117.05440000824031, 455.07917697553137 133.51703472760562 C461.7802335951061 149.97966944697095, 465.4795251207132 168.1569636119635, 466.78673992469453 186.00959936306862 C468.09395472867584 203.86223511417373, 466.9253031059933 223.10829176521065, 462.92246579941923 240.6328492342363 C458.91962849284516 258.1574067032619, 451.7516707213209 275.58033557876934, 442.76971608525014 291.1569441772225 C433.78776144917936 306.73355277567566, 422.6423213135428 321.0239455222695, 409.03073798299454 334.09250082495515 C395.41915465244625 347.1610561276408, 378.56122989842754 359.8875281762213, 361.10021610196037 369.56827599333616 C343.6392023054932 379.24902381045104, 323.9746872413167 386.8094262790123, 304.26465520419157 392.1769877276445 C284.55462316706644 397.54454917627663, 263.34005661137854 401.10078998875167, 242.8400238792094 401.7736446851293 C222.33999114704028 402.4464993815069, 201.21012778564815 400.50540623606844, 181.26445881117678 396.21411590591003 C161.3187898367054 391.92282557575163, 141.30555748226345 384.5602765174966, 123.16601003238121 376.025902704179 C105.02646258249898 367.49152889086133, 87.24347752187023 356.88539905481537, 72.42717411188337 345.0078730260043 C57.610870701896516 333.1303469971932, 44.94442844584813 319.73622203578225, 34.268189572460045 304.7607465313124 C23.59195069907196 289.78527102684257, 14.072284464744666 272.1572360012125, 8.369740871554853 255.1550199991853 C2.667197278365042 238.15280399715812, 0.19283387549515396 220.41314469896773, 0.05292801332117847 202.74745051914934 C-0.08697784885279702 185.08175633933095, 2.332999410319961 166.3779999564882, 7.530305698511 149.16085492027491 C12.72761198670204 131.94370988406163, 20.95125247124667 114.56566135610295, 31.236765742467412 99.44458030186966 C41.522279013688156 84.32349924763638, 54.65759770502189 70.82006848310111, 69.24338532583545 58.43436859487517 C83.82917294664901 46.048668706649224, 100.68230326409095 34.01763197055242, 118.75149146734874 25.13038097251402 C136.82067967060652 16.243129974475615, 160.49053442645322 9.101702568740421, 177.65851454538222 5.11086260664473 C194.8264946643112 1.1200226445490387, 212.29896359228192 1.2538511634076315, 221.75937218092275 1.1853411999398702 C231.21978076956358 1.116831236472109, 234.21897885120913 1.6415956384414678, 234.4209660772272 4.699802825838162 M243.50209426518666 -1.1453690788300719 C263.33549574794085 -3.9658801708218383, 284.81247414569896 2.739859857699831, 304.50984778274915 8.188530044311591 C324.20722141979934 13.637200230923352, 344.3930527775681 21.94861903178758, 361.6863360874878 31.546652040840485 C378.97961939740753 41.14468504989339, 394.7990494012414 52.403428895332304, 408.2695476422676 65.77672809862904 C421.74004588329376 79.15002730192577, 433.4138784445137 95.78602204488654, 442.50932553364476 111.78644726062089 C451.6047726227758 127.78687247635524, 458.9263403158877 144.8207220221736, 462.8422301770537 161.77927939303515 C466.75812003821966 178.7378367638967, 467.46639763799186 196.04453333512853, 466.00466470064043 213.53779148579008 C464.542931763289 231.03104963645163, 460.67005227905696 250.11468136940596, 454.071832552945 266.7388282970044 C447.47361282683306 283.3629752246028, 438.1643076609036 298.63625869776007, 426.41534634396874 313.28267305138064 C414.66638502703387 327.9290874050012, 399.4688570450226 342.991211199335, 383.5780646513359 354.61731441872774 C367.6872722576492 366.2434176381205, 349.31703248667486 375.649802571523, 331.07059198184845 383.0392923677372 C312.82415147702204 390.4287821639513, 293.90426373439834 395.946935965507, 274.09942162237746 398.95425319601276 C254.29457951035658 401.9615704265185, 233.077427070479 402.80819882738433, 212.24153930972324 401.0831957507716 C191.40565154896748 399.3581926741589, 168.48264779362415 394.9140555295709, 149.08409505784297 388.6042347363365 C129.6855423220618 382.2944139431021, 112.1920606229817 373.7949901674589, 95.85022289503615 363.22427099136536 C79.50838516709061 352.65355181527184, 63.83152162384825 339.35528912177426, 51.03306869016973 325.17991967977537 C38.2346157564912 311.00455023777647, 27.231197908383436 294.3282037385578, 19.059505292965014 278.17205433937215 C10.887812677546592 262.0159049401865, 4.619342116097721 245.67009027289987, 2.0029129976591946 228.24302328466123 C-0.6135161207793325 210.8159562964226, 0.876502136361855 190.90544332415848, 3.3609305823338502 173.60965240994034 C5.845359028305845 156.3138614957222, 9.363139035387174 140.43821466242724, 16.909483673491167 124.46827779935244 C24.45582831159516 108.49834093627763, 35.82843044693222 91.84719560653704, 48.63899841095781 77.79003123149147 C61.449566374983405 63.732866856445895, 76.9022905221095 50.684369067582104, 93.77289145764473 40.12529154907898 C110.64349239317997 29.566214030575857, 130.66674761243928 20.79492718427518, 149.8626040241692 14.435566120472714 C169.05846043589912 8.076205056670247, 193.48241296766318 4.575224804812729, 208.9480299280242 1.9691251662641776 C224.41364688838522 -0.6369744722843742, 236.796998729031 -1.7071014224379817, 242.65630578633528 -1.2010317108185973 C248.51561284363956 -0.6949619991992128, 244.0242653314096 1.194960715835895, 244.1038722718498 5.005543435980485" stroke="#364fc7" stroke-width="1" fill="none"></path></g><g><g transform="translate(181 119) rotate(359.8281273967803 118.8753202900291 78.58571999222042)"><path d="M-0.6324720159173012 0.3433196559548377 C39.14251884470384 26.39381936540206, 198.57830453564725 130.67157356093327, 238.3831125959754 156.82812032848597" stroke="#000000" stroke-width="2.5" fill="none" stroke-dasharray="12 8"></path></g><g transform="translate(181 119) rotate(359.8281273967803 118.8753202900291 78.58571999222042)"><path d="M209.7526589262753 150.59604803315636 C215.36883690166349 152.34713960638808, 224.23774780928957 153.9236018661846, 238.06877613961697 155.49303545057774" stroke="#000000" stroke-width="2.5" fill="none"></path></g><g transform="translate(181 119) rotate(359.8281273967803 118.8753202900291 78.58571999222042)"><path d="M221.00111413094317 133.43235793182848 C223.56798533127073 139.89161780081258, 229.31248085962133 146.23553446585524, 238.06877613961697 155.49303545057774" stroke="#000000" stroke-width="2.5" fill="none"></path></g></g><g transform="translate(244 10) rotate(0 99.5 25)"><text x="0" y="20" font-family="Cascadia, Segoe UI Emoji" font-size="20px" fill="#000000" text-anchor="start" style="white-space: pre;" direction="ltr">this is not ideal</text><text x="0" y="45" font-family="Cascadia, Segoe UI Emoji" font-size="20px" fill="#000000" text-anchor="start" style="white-space: pre;" direction="ltr"></text></g><g><g transform="translate(246 36) rotate(0 -27.52252049186734 13.45333707229699)"><path d="M-0.8355419620871544 -0.4460519090294838 C-10.35172926435868 4.5100134755174315, -46.77054489304622 23.99413443257411, -55.97170076221228 28.63250725120306 M0.926659778477624 -1.7258331066090615 C-8.321047146298612 2.976534353025878, -44.6661998308481 21.82463179789794, -53.769889126000926 26.841998809305952" stroke="#000000" stroke-width="2" fill="none"></path></g><g transform="translate(246 36) rotate(0 -27.52252049186734 13.45333707229699)"><path d="M-34.44848546229648 2.919967246879825 C-40.75728040664577 11.444705767632762, -50.73904911629611 22.62168773365239, -54.29520341980271 25.39572270336561 M-33.08468898602175 4.739673504312524 C-38.34506600253186 10.503104032883336, -42.53246895008823 14.448447128257609, -52.912124006478116 26.022083294866608" stroke="#000000" stroke-width="2" fill="none"></path></g><g transform="translate(246 36) rotate(0 -27.52252049186734 13.45333707229699)"><path d="M-24.806972284383384 21.03518808533409 C-34.74581026742743 22.359287354807414, -48.52426469553194 26.402762476532118, -54.29520341980271 25.39572270336561 M-23.443175808108656 22.85489434276679 C-31.090903069154187 24.349793515786978, -37.59520509429332 23.94196738592275, -52.912124006478116 26.022083294866608" stroke="#000000" stroke-width="2" fill="none"></path></g></g></svg>
